<svg version="1.1" id="Layer_1" x="0px" y="0px" viewBox="0 0 512 512" style="enable-background:new 0 0 512 512;" xml:space="preserve" sodipodi:docname="eye_open_light.svg" inkscape:export-filename="eye_closed_light.svg" inkscape:export-xdpi="94.097267" inkscape:export-ydpi="94.097267" inkscape:version="1.3.2 (091e20e, 2023-11-25, custom)" xmlns:inkscape="http://www.inkscape.org/namespaces/inkscape" xmlns:sodipodi="http://sodipodi.sourceforge.net/DTD/sodipodi-0.dtd" xmlns="http://www.w3.org/2000/svg" xmlns:svg="http://www.w3.org/2000/svg"><defs id="defs2" fill="#ffffff"/><sodipodi:namedview id="namedview2" pagecolor="#505050" bordercolor="#eeeeee" borderopacity="1" inkscape:showpageshadow="0" inkscape:pageopacity="0" inkscape:pagecheckerboard="0" inkscape:deskcolor="#d1d1d1" inkscape:zoom="1.4142136" inkscape:cx="311.48054" inkscape:cy="265.5186" inkscape:window-width="1920" inkscape:window-height="1009" inkscape:window-x="-8" inkscape:window-y="-8" inkscape:window-maximized="1" inkscape:current-layer="Layer_1" fill="#ffffff"/>
<g id="g2">
	<path d="M479.3,230.97l-19.15,14.67c2.5,3.29,3.59,6.81,3.61,10.37c-0.02,3.55-1.1,7.07-3.61,10.37l0,0   c-17.18,22.46-46.72,57.03-82.98,85.16c-36.33,28.32-78.71,49.36-121.17,49.21c-42.46,0.15-84.84-20.89-121.17-49.21   c-36.26-28.13-65.8-62.7-82.98-85.16l0,0c-2.52-3.31-3.59-6.81-3.61-10.26c0.02-3.66,1.12-7.19,3.61-10.47l0,0   c17.18-22.46,46.72-57.03,82.98-85.16c36.33-28.32,78.71-49.36,121.17-49.21c42.46-0.15,84.84,20.89,121.17,49.21   c36.26,28.13,65.8,62.7,82.98,85.16l0,0L479.3,230.97l19.15-14.67c-18.84-24.55-50.51-61.89-91.68-93.92   c-41.1-31.84-92.36-59.2-150.77-59.35c-58.41,0.15-109.67,27.51-150.77,59.35c-41.17,32.03-72.84,69.37-91.68,93.92l0,0   C4.56,228.01-0.02,242.13,0,256.1c-0.01,14.05,4.68,28.03,13.55,39.6l0,0c18.84,24.55,50.51,61.89,91.68,93.92   c41.1,31.84,92.36,59.2,150.77,59.35c58.41-0.15,109.67-27.51,150.77-59.35c41.17-32.03,72.84-69.37,91.68-93.92l0,0   c8.93-11.64,13.57-25.69,13.55-39.7c0.02-14.01-4.62-28.06-13.55-39.7l0,0L479.3,230.97z" id="path1" fill="#ffffff"/>
	<path d="M256,183.63v24.12c26.63,0.05,48.2,21.61,48.24,48.24c-0.05,26.63-21.61,48.2-48.24,48.24   c-26.63-0.05-48.2-21.61-48.24-48.24c0.05-26.63,21.61-48.2,48.24-48.24V183.63v-24.12c-53.3,0.02-96.47,43.19-96.49,96.49   c0.02,53.3,43.19,96.47,96.49,96.49c53.3-0.02,96.47-43.19,96.49-96.49c-0.02-53.3-43.19-96.47-96.49-96.49V183.63z" id="path2" fill="#ffffff"/>
</g>
<rect style="fill:#ffffff;fill-opacity:1;fill-rule:evenodd;stroke:#74aa76;stroke-width:0" id="rect2" width="47.862244" height="510.74048" x="336.70285" y="-283.60794" transform="rotate(49.5)"/><circle style="fill:#ffffff;fill-opacity:1;fill-rule:evenodd;stroke:#74aa76;stroke-width:0" id="path4" cx="449.7774" cy="90.180809" r="24.055351"/><circle style="fill:#ffffff;fill-opacity:1;fill-rule:evenodd;stroke:#74aa76;stroke-width:0" id="path4-1" cx="61.51305" cy="421.68051" r="23.944023"/></svg>