<?xml version="1.0" encoding="utf-8"?>
<!-- Generator: Adobe Illustrator 28.0.0, SVG Export Plug-In . SVG Version: 6.00 Build 0)  -->
<svg version="1.1" id="Layer_1" xmlns="http://www.w3.org/2000/svg" xmlns:xlink="http://www.w3.org/1999/xlink" x="0px" y="0px"
	 viewBox="0 0 512 512" style="enable-background:new 0 0 512 512;" xml:space="preserve">
<g>
	<path d="M479.3,230.97l-19.15,14.67c2.5,3.29,3.59,6.81,3.61,10.37c-0.02,3.55-1.1,7.07-3.61,10.37l0,0
		c-17.18,22.46-46.72,57.03-82.98,85.16c-36.33,28.32-78.71,49.36-121.17,49.21c-42.46,0.15-84.84-20.89-121.17-49.21
		c-36.26-28.13-65.8-62.7-82.98-85.16l0,0c-2.52-3.31-3.59-6.81-3.61-10.26c0.02-3.66,1.12-7.19,3.61-10.47l0,0
		c17.18-22.46,46.72-57.03,82.98-85.16c36.33-28.32,78.71-49.36,121.17-49.21c42.46-0.15,84.84,20.89,121.17,49.21
		c36.26,28.13,65.8,62.7,82.98,85.16l0,0L479.3,230.97l19.15-14.67c-18.84-24.55-50.51-61.89-91.68-93.92
		c-41.1-31.84-92.36-59.2-150.77-59.35c-58.41,0.15-109.67,27.51-150.77,59.35c-41.17,32.03-72.84,69.37-91.68,93.92l0,0
		C4.56,228.01-0.02,242.13,0,256.1c-0.01,14.05,4.68,28.03,13.55,39.6l0,0c18.84,24.55,50.51,61.89,91.68,93.92
		c41.1,31.84,92.36,59.2,150.77,59.35c58.41-0.15,109.67-27.51,150.77-59.35c41.17-32.03,72.84-69.37,91.68-93.92l0,0
		c8.93-11.64,13.57-25.69,13.55-39.7c0.02-14.01-4.62-28.06-13.55-39.7l0,0L479.3,230.97z"/>
	<path d="M256,183.63v24.12c26.63,0.05,48.2,21.61,48.24,48.24c-0.05,26.63-21.61,48.2-48.24,48.24
		c-26.63-0.05-48.2-21.61-48.24-48.24c0.05-26.63,21.61-48.2,48.24-48.24V183.63v-24.12c-53.3,0.02-96.47,43.19-96.49,96.49
		c0.02,53.3,43.19,96.47,96.49,96.49c53.3-0.02,96.47-43.19,96.49-96.49c-0.02-53.3-43.19-96.47-96.49-96.49V183.63z"/>
</g>
</svg>
