<?xml version="1.0" encoding="iso-8859-1"?>
<!-- Uploaded to: SVG Repo, www.svgrepo.com, Generator: SVG Repo Mixer Tools -->
<svg height="800px" width="800px" version="1.1" id="Capa_1" xmlns="http://www.w3.org/2000/svg" xmlns:xlink="http://www.w3.org/1999/xlink" 
	 viewBox="0 0 28.577 28.577" xml:space="preserve">
<g>
	<g id="c117_arrows">
		<path style="fill:#030104;" d="M28.19,13.588l-3.806-3.806c-0.494-0.492-1.271-0.519-1.733-0.054
			c-0.462,0.462-0.439,1.237,0.057,1.732l1.821,1.821h-9.047V4.118l1.82,1.82c0.495,0.493,1.271,0.521,1.732,0.055
			c0.464-0.464,0.442-1.238-0.055-1.733l-3.805-3.807c-0.495-0.493-1.271-0.517-1.733-0.054c-0.013,0.012-0.021,0.024-0.031,0.038
			c-0.017,0.013-0.036,0.025-0.054,0.044l-3.75,3.754C9.118,4.724,9.097,5.493,9.562,5.957c0.463,0.461,1.233,0.443,1.723-0.044
			l1.825-1.828v9.196H4.017l1.83-1.827c0.488-0.489,0.505-1.26,0.041-1.721C5.426,9.268,4.656,9.289,4.169,9.776l-3.756,3.752
			c-0.017,0.02-0.028,0.037-0.043,0.053c-0.012,0.012-0.026,0.021-0.037,0.03c-0.465,0.467-0.44,1.241,0.057,1.734l3.804,3.807
			c0.494,0.495,1.271,0.52,1.733,0.056s0.438-1.24-0.056-1.733l-1.82-1.82h9.059v8.803l-1.817-1.82
			c-0.495-0.494-1.271-0.519-1.734-0.054c-0.463,0.463-0.439,1.237,0.056,1.73l3.805,3.807c0.495,0.496,1.271,0.52,1.734,0.057
			c0.013-0.013,0.021-0.024,0.029-0.04c0.018-0.013,0.036-0.026,0.056-0.042l3.751-3.756c0.489-0.484,0.51-1.256,0.045-1.721
			c-0.465-0.46-1.234-0.442-1.722,0.042l-1.829,1.829l0.001-8.835h9.078l-1.83,1.83c-0.488,0.485-0.506,1.255-0.043,1.722
			c0.462,0.462,1.232,0.443,1.721-0.046l3.754-3.754c0.017-0.016,0.029-0.036,0.045-0.053c0.013-0.012,0.027-0.019,0.039-0.03
			C28.708,14.859,28.684,14.084,28.19,13.588z"/>
	</g>
</g>
</svg>