<?xml version="1.0" encoding="UTF-8" standalone="no"?>
<svg
   version="1.1"
   width="256"
   height="256"
   viewBox="0 0 256 256"
   xml:space="preserve"
   id="svg1"
   sodipodi:docname="reset_light.svg"
   inkscape:version="1.3.2 (091e20e, 2023-11-25, custom)"
   xmlns:inkscape="http://www.inkscape.org/namespaces/inkscape"
   xmlns:sodipodi="http://sodipodi.sourceforge.net/DTD/sodipodi-0.dtd"
   xmlns="http://www.w3.org/2000/svg"
   xmlns:svg="http://www.w3.org/2000/svg"><defs
   id="defs1" /><sodipodi:namedview
   id="namedview1"
   pagecolor="#505050"
   bordercolor="#eeeeee"
   borderopacity="1"
   inkscape:showpageshadow="0"
   inkscape:pageopacity="0"
   inkscape:pagecheckerboard="0"
   inkscape:deskcolor="#d1d1d1"
   showgrid="false"
   inkscape:zoom="3.1757812"
   inkscape:cx="128"
   inkscape:cy="128"
   inkscape:window-width="1920"
   inkscape:window-height="1009"
   inkscape:window-x="-8"
   inkscape:window-y="-8"
   inkscape:window-maximized="1"
   inkscape:current-layer="svg1" />
<g
   style="stroke:none;stroke-width:0;stroke-dasharray:none;stroke-linecap:butt;stroke-linejoin:miter;stroke-miterlimit:10;fill:#ffffff;fill-rule:nonzero;opacity:1;fill-opacity:1"
   transform="translate(1.4065934065934016 1.4065934065934016) scale(2.81 2.81)"
   id="g1">
	<path
   d="M 75.702 53.014 c -2.142 7.995 -7.27 14.678 -14.439 18.816 c -7.168 4.138 -15.519 5.239 -23.514 3.095 c -16.505 -4.423 -26.335 -21.448 -21.913 -37.953 C 20.258 20.467 37.286 10.64 53.79 15.06 c 4.213 1.129 8.076 3.118 11.413 5.809 l -8.349 8.35 h 26.654 V 2.565 l -8.354 8.354 c -5.1 -4.405 -11.133 -7.61 -17.74 -9.381 C 33.451 -4.882 8.735 9.389 2.314 33.35 c -6.42 23.961 7.851 48.678 31.811 55.098 C 38.001 89.486 41.934 90 45.842 90 c 7.795 0 15.488 -2.044 22.42 -6.046 c 10.407 -6.008 17.851 -15.709 20.962 -27.317 L 75.702 53.014 z"
   style="stroke:none;stroke-width:1;stroke-dasharray:none;stroke-linecap:butt;stroke-linejoin:miter;stroke-miterlimit:10;fill:#ffffff;fill-rule:nonzero;opacity:1;fill-opacity:1"
   transform=" matrix(1 0 0 1 0 0) "
   stroke-linecap="round"
   id="path1" />
</g>
</svg>
