<?xml version="1.0" encoding="UTF-8" standalone="no"?>
<!-- Uploaded to: SVG Repo, www.svgrepo.com, Generator: SVG Repo Mixer Tools -->

<svg
   height="800px"
   width="800px"
   version="1.1"
   id="Capa_1"
   viewBox="0 0 28.577 28.577"
   xml:space="preserve"
   sodipodi:docname="scale_light0.svg"
   inkscape:version="1.3.2 (091e20e, 2023-11-25, custom)"
   xmlns:inkscape="http://www.inkscape.org/namespaces/inkscape"
   xmlns:sodipodi="http://sodipodi.sourceforge.net/DTD/sodipodi-0.dtd"
   xmlns="http://www.w3.org/2000/svg"
   xmlns:svg="http://www.w3.org/2000/svg"><defs
   id="defs1" /><sodipodi:namedview
   id="namedview1"
   pagecolor="#505050"
   bordercolor="#eeeeee"
   borderopacity="1"
   inkscape:showpageshadow="0"
   inkscape:pageopacity="0"
   inkscape:pagecheckerboard="0"
   inkscape:deskcolor="#d1d1d1"
   inkscape:zoom="1.01625"
   inkscape:cx="368.51169"
   inkscape:cy="400"
   inkscape:window-width="1920"
   inkscape:window-height="1009"
   inkscape:window-x="-8"
   inkscape:window-y="-8"
   inkscape:window-maximized="1"
   inkscape:current-layer="Capa_1" />
<g
   id="g1"
   transform="matrix(0.94950905,0.94950905,-0.94950905,0.94950905,14.317203,-12.876914)">
	<g
   id="c117_arrows">
		<path
   style="fill:#030104"
   d="M 28.19,13.588 24.384,9.782 C 23.89,9.29 23.113,9.263 22.651,9.728 c -0.462,0.462 -0.439,1.237 0.057,1.732 l 1.821,1.821 H 15.482 V 4.118 l 1.82,1.82 c 0.495,0.493 1.271,0.521 1.732,0.055 C 19.498,5.529 19.476,4.755 18.979,4.26 L 15.174,0.453 C 14.679,-0.04 13.903,-0.064 13.441,0.399 13.428,0.411 13.42,0.423 13.41,0.437 13.393,0.45 13.374,0.462 13.356,0.481 L 9.606,4.235 C 9.118,4.724 9.097,5.493 9.562,5.957 10.025,6.418 10.795,6.4 11.285,5.913 L 13.11,4.085 v 9.196 H 4.017 l 1.83,-1.827 C 6.335,10.965 6.352,10.194 5.888,9.733 5.426,9.268 4.656,9.289 4.169,9.776 l -3.756,3.752 c -0.017,0.02 -0.028,0.037 -0.043,0.053 -0.012,0.012 -0.026,0.021 -0.037,0.03 -0.465,0.467 -0.44,1.241 0.057,1.734 l 3.804,3.807 c 0.494,0.495 1.271,0.52 1.733,0.056 0.462,-0.464 0.438,-1.24 -0.056,-1.733 l -1.82,-1.82 h 9.059 v 8.803 l -1.817,-1.82 c -0.495,-0.494 -1.271,-0.519 -1.734,-0.054 -0.463,0.463 -0.439,1.237 0.056,1.73 l 3.805,3.807 c 0.495,0.496 1.271,0.52 1.734,0.057 0.013,-0.013 0.021,-0.024 0.029,-0.04 0.018,-0.013 0.036,-0.026 0.056,-0.042 L 18.99,24.34 c 0.489,-0.484 0.51,-1.256 0.045,-1.721 -0.465,-0.46 -1.234,-0.442 -1.722,0.042 l -1.829,1.829 10e-4,-8.835 h 9.078 l -1.83,1.83 c -0.488,0.485 -0.506,1.255 -0.043,1.722 0.462,0.462 1.232,0.443 1.721,-0.046 l 3.754,-3.754 c 0.017,-0.016 0.029,-0.036 0.045,-0.053 0.013,-0.012 0.027,-0.019 0.039,-0.03 0.459,-0.465 0.435,-1.24 -0.059,-1.736 z"
   id="path1" />
	</g>
</g>
</svg>
