<?xml version="1.0" encoding="UTF-8" standalone="no"?>
<!-- Uploaded to: SVG Repo, www.svgrepo.com, Generator: SVG Repo Mixer Tools -->

<svg
   fill="#000000"
   width="650.00037"
   height="650.00037"
   viewBox="0 0 26.000015 26.000015"
   id="icon"
   version="1.1"
   sodipodi:docname="stop-sign-filled-svgrepo-com.svg"
   xmlns:inkscape="http://www.inkscape.org/namespaces/inkscape"
   xmlns:sodipodi="http://sodipodi.sourceforge.net/DTD/sodipodi-0.dtd"
   xmlns="http://www.w3.org/2000/svg"
   xmlns:svg="http://www.w3.org/2000/svg">
  <sodipodi:namedview
     id="namedview1"
     pagecolor="#505050"
     bordercolor="#eeeeee"
     borderopacity="1"
     inkscape:showpageshadow="0"
     inkscape:pageopacity="0"
     inkscape:pagecheckerboard="0"
     inkscape:deskcolor="#d1d1d1" />
  <defs
     id="defs1">
    <style
       id="style1">
      .cls-1 {
        fill: none;
      }
    </style>
  </defs>
  <path
     d="M 17.585708,26.000008 H 8.4143079 a 1.9865,1.9865 0 0 1 -1.4143,-0.5859 l -6.41410003,-6.4141 A 1.9865,1.9865 0 0 1 7.8678131e-6,17.585708 V 8.4143079 A 1.9865,1.9865 0 0 1 0.58590787,7.0000079 L 7.0000079,0.58590787 A 1.9865,1.9865 0 0 1 8.4143079,7.8678131e-6 H 17.585708 A 1.9865,1.9865 0 0 1 19.000008,0.58590787 l 6.4141,6.41410003 a 1.9865,1.9865 0 0 1 0.5859,1.4143 v 9.1714001 a 1.9865,1.9865 0 0 1 -0.5859,1.4143 l -6.4141,6.4141 a 1.9865,1.9865 0 0 1 -1.4143,0.5859 z"
     id="path1"
     inkscape:export-filename="TopoptComet_reworked\icons\stop_light.svg"
     inkscape:export-xdpi="96"
     inkscape:export-ydpi="96"
     style="fill:#ffffff;fill-opacity:1" />
  <rect
     id="_Transparent_Rectangle_"
     data-name=" Transparent Rectangle "
     class="cls-1"
     width="32"
     height="32"
     x="-2.9999921"
     y="-2.9999921" />
</svg>
