<?xml version="1.0" encoding="UTF-8" standalone="no"?>
<svg
   id="svg"
   version="1.1"
   width="398.52271"
   height="353.15213"
   viewBox="0 0 398.52271 353.15213"
   xmlns="http://www.w3.org/2000/svg"
   xmlns:svg="http://www.w3.org/2000/svg">
  <defs
     id="defs1" />
  <g
     id="svgg"
     transform="matrix(1.7263427,0,0,1.7263427,-156.03933,-145.51578)">
    <path
       id="path0"
       d="m 289.063,86.374 c -4.696,2.478 -20.759,10.845 -30.469,15.871 -3.115,1.612 -7.949,4.116 -10.742,5.565 -2.793,1.449 -8.067,4.176 -11.719,6.062 -3.653,1.885 -11.035,5.75 -16.406,8.589 -5.372,2.839 -15.303,7.977 -22.071,11.417 -6.767,3.441 -17.929,9.116 -24.804,12.61 -50.174,25.505 -57.512,29.843 -65.788,38.893 -35.461,38.777 -10.677,103.512 39.616,103.477 18.874,-0.014 30.408,-6.417 54.882,-30.47 22.838,-22.444 45.236,-41.88 66.111,-57.369 5.78,-4.289 6.487,-5.54 4.462,-7.894 -1.419,-1.65 -2.761,-1.373 -7.383,1.522 -2.205,1.382 -8.756,5.284 -14.557,8.671 -23.341,13.629 -24.84,14.568 -37.304,23.36 -7.972,5.623 -8.734,6.706 -6.613,9.402 1.231,1.565 2.124,1.304 7.809,-2.279 5.488,-3.459 7.013,-3.751 3.439,-0.657 -4.39,3.8 -11.779,10.717 -20.249,18.956 -4.832,4.7 -9.348,8.974 -10.035,9.498 l -1.25,0.953 -5.789,-2.347 c -3.184,-1.292 -10.884,-4.424 -17.112,-6.961 l -11.323,-4.612 -0.859,-1.81 c -1.004,-2.115 -2.469,-3.279 -4.633,-3.684 -0.852,-0.16 -1.725,-0.506 -1.94,-0.77 -2.533,-3.109 -15.242,-20.317 -17.876,-24.203 l -3.442,-5.078 0.258,-2.076 c 0.193,-1.552 0.09,-2.447 -0.408,-3.551 l -0.666,-1.477 2.306,-4.846 c 2.462,-5.177 5.204,-10.13 11.662,-21.069 4.024,-6.816 4.051,-6.851 6.299,-7.951 3.531,-1.729 21.193,-11.112 36.633,-19.462 7.734,-4.182 17.314,-9.33 21.289,-11.439 3.974,-2.11 11.357,-6.028 16.406,-8.707 16.678,-8.852 36.707,-19.391 51.367,-27.028 20.893,-10.884 27.65,-14.485 28.383,-15.126 1.436,-1.257 1.183,-4.061 -0.474,-5.237 -1.827,-1.296 -2.352,-1.201 -7.01,1.257 m -30.079,46.582 c -58.634,30.894 -67.065,35.384 -68.155,36.299 -2.408,2.02 -1.069,5.854 2.232,6.39 1.55,0.251 1.263,0.397 44.048,-22.319 9.991,-5.304 24.965,-13.245 33.278,-17.647 8.312,-4.402 15.306,-8.236 15.543,-8.522 2.008,-2.419 0.125,-6.467 -3,-6.45 -0.387,0.002 -11.162,5.514 -23.946,12.249 m 44.141,11.809 c -23.777,12.487 -79.489,43.189 -80.566,44.398 -1.837,2.061 0.057,6.15 2.848,6.15 1.204,0 24.136,-12.051 39.046,-20.518 16.395,-9.311 29.708,-16.633 47.605,-26.184 9.492,-5.066 10.549,-6.33 7.962,-9.524 -1.715,-2.118 -2.648,-1.804 -16.895,5.678 M 162.5,176.932 c -21.276,4.522 -32.118,26.692 -22.649,46.31 12.945,26.817 52.454,22.92 59.629,-5.882 5.736,-23.025 -14.543,-45.196 -36.98,-40.428 m -33.203,1.789 c 0,0.113 -1.569,3.16 -3.487,6.771 -1.918,3.612 -4.711,9.118 -6.207,12.237 -2.333,4.864 -3.601,6.684 -4.223,6.062 -1.167,-1.167 -5.511,-9.895 -5.207,-10.463 2.37,-4.428 19.124,-17.225 19.124,-14.607 m -20.716,24.773 c 3.553,5.75 3.814,4.835 -3.555,12.441 -6.998,7.222 -6.979,7.206 -6.979,5.77 0,-4.716 6.148,-22.096 7.817,-22.096 0.173,0 1.396,1.749 2.717,3.885 m 5.161,15.337 c -0.243,1.782 -0.727,6.755 -1.075,11.052 -0.347,4.297 -0.701,8.042 -0.786,8.324 -0.144,0.474 -11.22,-6.666 -12.232,-7.885 -0.504,-0.609 13.617,-15.649 14.172,-15.094 0.225,0.225 0.195,1.601 -0.079,3.603 m 11.279,7.007 c 3.072,4.329 7.131,9.863 9.02,12.299 4.093,5.28 4.812,6.343 4.503,6.653 -0.544,0.543 -17.614,-2.21 -18.001,-2.904 -0.208,-0.371 -0.964,-1.195 -1.681,-1.83 -1.245,-1.102 -1.296,-1.255 -1.113,-3.321 0.106,-1.19 0.405,-5.9 0.666,-10.465 0.261,-4.566 0.598,-8.301 0.748,-8.301 0.15,0 2.786,3.541 5.858,7.869 m -21.118,14.326 c 4.741,3.437 5.292,3.959 5.494,5.202 0.124,0.76 0.591,1.896 1.038,2.524 l 0.813,1.141 -1.968,5.172 c -2.306,6.059 -2.41,6.106 -4.723,2.145 -3.207,-5.496 -4.858,-10.43 -6.275,-18.75 -0.294,-1.733 -0.33,-1.749 5.621,2.566 m 27.152,9.456 c 8.641,1.371 9.186,1.541 9.169,2.869 -0.017,1.249 -6.756,14.089 -7.468,14.225 -0.484,0.094 -9.551,-12.83 -12.206,-17.398 -0.457,-0.787 0.164,-1.358 1.274,-1.17 0.565,0.095 4.719,0.759 9.231,1.474 m -11.231,7.802 c 1.688,2.685 4.066,6.367 5.283,8.182 2.709,4.038 2.98,3.839 -3.505,2.582 -2.965,-0.575 -6.3,-1.22 -7.411,-1.433 -1.906,-0.367 -3.253,-1.462 -3.253,-2.644 0,-0.204 1.077,-3.126 2.393,-6.493 2.784,-7.119 2.15,-7.1 6.493,-0.194 m 43.831,2.214 c 6.992,2.937 13.639,5.724 14.772,6.194 1.133,0.47 2.156,0.951 2.274,1.069 0.913,0.913 -14.866,11.226 -17.178,11.226 -0.636,0 -2.63,-3.333 -7.36,-12.305 -5.88,-11.152 -6.057,-11.523 -5.496,-11.523 0.152,0 5.997,2.403 12.988,5.339 m -16.04,1.399 c 1.287,2.632 3.656,7.158 5.266,10.059 3.233,5.828 3.218,6.053 -0.325,4.727 -1.173,-0.439 -4.454,-1.41 -7.292,-2.157 -7.842,-2.067 -7.997,-2.502 -3.853,-10.798 2.6,-5.205 3.397,-6.616 3.735,-6.616 0.071,0 1.182,2.153 2.469,4.785 m -19.123,14.808 c 1.767,1.468 2.182,2.907 0.707,2.458 -1.508,-0.46 -8.242,-4.024 -9.464,-5.01 l -1.164,-0.938 4.174,1.092 c 3.194,0.836 4.544,1.399 5.747,2.398 m 11.4,1.467 c 0.94,0.411 3.741,1.302 6.224,1.981 7.237,1.978 7.347,2.577 0.445,2.414 -9.403,-0.222 -12.779,-1.695 -9.64,-4.207 1.388,-1.11 0.929,-1.081 2.971,-0.188"
       stroke="none"
       fill="#ffffff"
       fill-rule="evenodd" />
  </g>
</svg>
